<?xml version="1.0" encoding="UTF-8"?>
<svg width="406px" height="245px" viewBox="0 0 406 245" version="1.1" xmlns="http://www.w3.org/2000/svg" xmlns:xlink="http://www.w3.org/1999/xlink">
    <g id="App" stroke="none" stroke-width="1" fill="none" fill-rule="evenodd">
        <g id="indexPage" transform="translate(-517.000000, -328.000000)" fill="#FFFFFF">
            <g id="Logo" transform="translate(489.000000, 328.000000)">
                <g id="Fill-23">
                    <path d="M257.757124,181.195504 L257.757124,234 L251.247049,234 L251.247049,181.195504 L237,181.195504 L237,175 L272,175 L272,181.195504 L257.757124,181.195504 Z M204.520777,202.334092 L208.658962,202.334092 C216.763954,202.334092 221.608557,198.443014 221.608557,191.546528 C221.608557,188.268284 220.6388,184.998435 216.943693,182.874502 C214.297762,181.371799 211.304893,181.195504 208.483403,181.195504 L204.520777,181.195504 L204.520777,202.334092 Z M207.425867,175 C211.392673,175 217.294812,175.26864 221.696336,178.278244 C225.132284,180.574274 228.125154,185.086582 228.125154,191.366036 C228.125154,200.386454 222.223015,207.022695 213.328006,207.643924 L232,234 L224.074748,234 L206.192771,208.172809 L204.520777,208.172809 L204.520777,234 L198,234 L198,175 L207.425867,175 Z M174.157244,210.115139 L164.181832,186.43055 L154.02036,210.115139 L174.157244,210.115139 Z M176.740955,216.323557 L151.436648,216.323557 L144.307126,233 L137,233 L164.359436,171 L191,233 L183.692874,233 L176.740955,216.323557 Z M105.366683,194.925997 L109.21188,191.868638 C112.534428,189.173728 113.144185,187.020358 113.144185,184.95227 C113.144185,180.730812 109.912892,178.75227 106.851667,178.75227 C103.267795,178.75227 100.384934,181.536726 100.384934,185.310454 C100.384934,187.915818 101.608595,189.625722 102.740999,191.241816 L105.366683,194.925997 Z M103.790443,203.462724 C99.5097063,206.157634 97.236602,208.136176 95.5774017,209.662724 C93.9140534,211.189271 91.466733,213.615543 91.466733,218.288996 C91.466733,224.220358 95.7516177,228.89381 101.782811,228.89381 C107.98822,228.89381 114.542061,222.779092 116.728057,220.621458 L103.790443,203.462724 Z M132.63564,211.99945 C131.063547,214.242366 128.790443,217.120633 125.20657,220.89436 L135,233.925447 L126.952879,233.925447 L120.66451,225.567813 C115.591505,230.778542 108.510868,235 101.869919,235 C92.3419612,235 85,227.900275 85,218.378542 C85,211.90564 88.3225485,207.957084 90.2430728,205.978542 C93.3042973,202.831637 98.8086942,199.326547 100.032354,198.520633 C96.1000498,193.309904 94.2624855,189.715268 94.2624855,185.672902 C94.2624855,179.379092 98.5473702,173 106.938776,173 C115.068857,173 119.266633,179.025172 119.266633,185.041816 C119.266633,187.826272 118.474365,191.783356 113.845197,195.911004 C112.360212,197.262724 112.88286,196.542091 109.124772,199.778542 L121.274266,215.862724 C124.422598,212.44718 126.256015,210.29381 127.919363,207.957084 L132.63564,211.99945 Z M64.752951,181.195504 L64.752951,234 L58.247049,234 L58.247049,181.195504 L44,181.195504 L44,175 L79,175 L79,181.195504 L64.752951,181.195504 Z M28,234 L34,234 L34,175 L28,175 L28,234 Z M285.769988,222.992397 L285.778388,222.971381 C287.311512,227.035811 290.717987,230.171348 294.943527,231.339819 C295.208149,231.415475 295.481171,231.486928 295.749992,231.541569 C295.800396,231.549975 295.8466,231.558381 295.892804,231.566788 C296.417846,231.697085 296.875683,232.062757 297.0899,232.600758 C297.203309,232.878165 297.249513,233.159775 297.224311,233.432979 C297.182308,233.67676 297.157106,233.928948 297.157106,234.176933 C297.161306,234.185339 297.161306,234.193746 297.161306,234.202152 C297.161306,234.429121 297.173907,234.651887 297.21591,234.883059 C297.631744,237.346095 299.971333,239.00213 302.432731,238.577613 C303.898649,238.325425 305.066343,237.388127 305.692194,236.152406 L305.692194,236.165015 C305.692194,236.165015 324.148482,236.766063 329.676127,238.556598 L329.680328,238.556598 C334.023478,242.553777 339.815745,245 346.187659,245 C352.03873,245 356.478488,241.242399 361.619703,239.489693 C366.655909,237.774815 378.794887,239.065177 382.886017,240.111757 C382.890218,240.111757 382.886017,240.107553 382.886017,240.107553 C385.628838,240.986008 389.896383,241.944322 393.676687,241.944322 C411.708741,241.944322 426.32592,227.317421 426.32592,209.277575 C426.32592,208.911902 426.309118,208.554636 426.296517,208.193167 L426.32592,208.209979 L426.292317,208.004026 C426.195709,205.469537 425.809278,203.010704 425.170826,200.65695 C425.170826,200.65695 419.613778,182.398541 421.487129,176.610827 C422.587618,173.189477 430.769878,169.877408 431.559541,166.371996 C432.479416,162.286551 431.672951,151.501312 431.672951,151.501312 C428.871325,150.15631 413.195661,148.941604 411.406317,151.4845 C410.352032,152.989221 413.170459,156.856103 412.918439,158.667653 C412.481603,161.727534 404.908393,168.074265 404.908393,168.074265 C404.908393,168.074265 405.328427,161.807394 404.908393,159.777281 C404.580766,158.171684 402.325185,153.745785 402.325185,153.745785 L377.862412,154.149286 C377.862412,154.149286 377.370973,156.271868 379.487943,158.667653 C381.142877,160.538048 388.99751,161.660284 388.99751,161.660284 C388.99751,161.660284 388.984909,164.014038 388.61948,164.678133 C387.502189,166.69984 381.462103,170.520488 381.462103,170.520488 C381.462103,170.520488 380.93286,178.838488 379.487943,179.847239 C376.4721,181.074554 371.099867,185.189421 368.046221,189.064709 L368.042021,189.060506 L355.096577,152.808486 L333.439631,152.808486 L332.30974,155.069772 L320.443783,155.069772 L323.459626,159.777281 L327.941388,160.592688 C327.941388,160.592688 333.771458,184.071388 329.676127,190.119696 C328.96627,191.174682 324.963348,192.002699 324.963348,192.002699 C324.963348,192.002699 323.531032,199.038743 321.792092,200.488824 C315.331971,205.860428 293.338998,205.688099 289.092456,208.222589 L289.096656,208.209979 C288.063373,208.840449 280.884994,208.209979 280.884994,208.209979 L276,218.116763 L285.769988,222.992397 Z M404.651609,43 L397,43 L405.344063,23 L413,23 L404.651609,43 Z M426.587056,86.5393875 C424.819452,72.3464532 414.23497,61.6555624 399.937672,61.6555624 C385.29362,61.6555624 374.878286,72.6949779 372.941533,86.5393875 L426.587056,86.5393875 Z M372.408715,93.1949499 C372.408715,111.423213 385.82221,123.336039 400.999081,123.336039 C412.644972,123.336039 421.466078,116.504115 426.058467,107.039359 L432.059018,110.545602 C427.821842,118.607861 418.290311,130 400.470491,130 C378.058283,130 365,113.522759 365,92.6700633 C365,67.7904373 382.29123,55 399.937672,55 C419.351719,55 434,70.4190695 434,93.1949499 L372.408715,93.1949499 Z M341,128 L349,128 L349,0 L341,0 L341,128 Z M295,56.5732759 L302.167059,56.5732759 L302.167059,65.8493103 C304.855243,59.724023 310.411968,55 318.296163,55 C320.267212,55 323.31611,55.3482184 326,56.7494828 L322.418618,63.050977 C321.701482,62.5265517 320.267212,61.6497126 317.04225,61.6497126 C302.347417,61.6497126 302.167059,80.7345977 302.167059,89.6624138 L302.167059,128 L295,128 L295,56.5732759 Z M205.388608,91.7966519 C205.388608,107.91697 215.415703,123.336039 233.531069,123.336039 C251.473627,123.336039 261.323699,108.269694 261.323699,91.7966519 C261.323699,70.5954314 245.665583,61.6555624 233.354046,61.6555624 C219.1079,61.6555624 205.388608,72.3464532 205.388608,91.7966519 Z M260.969653,56.5746599 L268,56.5746599 L268,128.068417 L260.969653,128.068417 L260.969653,115.27798 C253.758068,126.317395 242.323218,130 233.004215,130 C214.180756,130 198,115.802867 198,92.3215385 C198,70.2427076 212.073338,55 233.004215,55 C244.262042,55 254.112115,59.379654 260.969653,69.0165724 L260.969653,56.5746599 Z M175.586602,86.5393875 C173.823118,72.3464532 163.233758,61.6555624 148.939814,61.6555624 C134.290635,61.6555624 123.874663,72.6949779 121.937791,86.5393875 L175.586602,86.5393875 Z M121.40494,93.1949499 C121.40494,111.423213 134.819257,123.336039 149.997058,123.336039 C161.643663,123.336039 170.469539,116.504115 175.05798,107.039359 L181.058899,110.545602 C176.821464,118.607861 167.293577,130 149.468436,130 C127.054854,130 114,113.522759 114,92.6700633 C114,67.7904373 131.288061,55 148.939814,55 C168.350821,55 183,70.4190695 183,93.1949499 L121.40494,93.1949499 Z M90.6156069,90.9946893 C90.6156069,71.4698682 77.6001927,61.0098442 62.8229769,61.0098442 C48.7538536,61.0098442 34.6805154,70.9477025 34.6805154,90.6479712 C34.6805154,108.42667 44.5305877,122.370584 62.6459538,122.370584 C80.7655347,122.370584 90.6156069,108.42667 90.6156069,90.9946893 Z M35.0345617,0 L35.0345617,68.3326965 C41.8921002,59.0924517 51.7421724,54.3887827 63.1770231,54.3887827 C84.8117775,54.3887827 98,70.4255367 98,90.9946893 C98,111.91056 84.6347543,129 62.8229769,129 C45.0574422,129 37.1419798,117.838185 35.0345617,114.354296 L35.0345617,127.07843 L28,127.07843 L28,0 L35.0345617,0 Z M0.089769465,152.143161 L462.872426,152.143161 L0.089769465,152.143161 Z"></path>
                </g>
            </g>
        </g>
    </g>
</svg>
